<svg width="60" height="60" viewBox="0 0 60 60" fill="none" xmlns="http://www.w3.org/2000/svg">
<path fill-rule="evenodd" clip-rule="evenodd" d="M34.8389 37.7419C34.8389 44.7096 40.4518 50.3225 47.4195 50.3225C54.3873 50.3225 60.0002 44.7096 60.0002 37.7419C60.0002 30.7742 54.3873 25.1613 47.4195 25.1613C40.4518 25.1613 34.8389 30.7742 34.8389 37.7419ZM36.7744 37.7419C36.7744 32.2258 41.0324 27.6774 46.4518 27.1935V37.3548L39.2905 44.5161C37.7421 42.6774 36.7744 40.3548 36.7744 37.7419ZM48.3873 27.0967V36.7742H56.1292V38.7096H47.8066L40.6453 45.8709C42.484 47.4193 44.8066 48.3871 47.4195 48.3871C53.3227 48.3871 58.0647 43.6451 58.0647 37.7419C58.0647 32.2258 53.8066 27.6774 48.3873 27.0967Z" fill="#FB7710"/>
<rect x="14.5161" y="13.5483" width="35.8064" height="1.93548" fill="#FB7710"/>
<rect x="14.5161" y="17.4193" width="23.2258" height="1.93548" fill="#FB7710"/>
<path d="M10.9354 13.8387L7.74181 17.0323L6.48374 15.7742L5.12891 17.1291L7.74181 19.742L12.2902 15.1936L10.9354 13.8387Z" fill="#FB7710"/>
<rect x="39.6772" y="17.4193" width="8.70968" height="1.93548" fill="#FB7710"/>
<rect x="14.5161" y="5.8064" width="19.3548" height="1.93548" fill="#FB7710"/>
<rect x="35.8066" y="5.8064" width="14.5161" height="1.93548" fill="#FB7710"/>
<rect x="14.5161" y="9.67737" width="6.77419" height="1.93548" fill="#FB7710"/>
<path d="M10.9354 6.0968L7.74181 9.29035L6.48374 8.03229L5.12891 9.38712L7.74181 12L12.2902 7.45164L10.9354 6.0968Z" fill="#FB7710"/>
<rect x="42.5806" y="9.67737" width="3.87097" height="1.93548" fill="#FB7710"/>
<rect x="23.2256" y="9.67737" width="17.4194" height="1.93548" fill="#FB7710"/>
<rect x="14.5161" y="21.2903" width="11.6129" height="1.93548" fill="#FB7710"/>
<rect x="28.0645" y="21.2903" width="22.2581" height="1.93548" fill="#FB7710"/>
<rect x="14.5161" y="25.1613" width="15.4839" height="1.93548" fill="#FB7710"/>
<path fill-rule="evenodd" clip-rule="evenodd" d="M5.80664 21.2903H11.6131V27.0967H5.80664V21.2903ZM7.74212 25.1613H9.67761V23.2258H7.74212V25.1613Z" fill="#FB7710"/>
<rect x="14.5161" y="29.0322" width="18.3871" height="1.93548" fill="#FB7710"/>
<rect x="14.5161" y="32.9032" width="6.77419" height="1.93548" fill="#FB7710"/>
<path fill-rule="evenodd" clip-rule="evenodd" d="M11.6131 34.8387H5.80664V29.0322H11.6131V34.8387ZM9.67761 30.9677H7.74212V32.9032H9.67761V30.9677Z" fill="#FB7710"/>
<rect x="23.2256" y="32.9032" width="9.67742" height="1.93548" fill="#FB7710"/>
<path fill-rule="evenodd" clip-rule="evenodd" d="M51.4839 52.2581L57.0968 54.4839V55.1613H60V57.0968H57.0968V57.7742L51.4839 60H3.87097V59.0322H1.93548C1.45161 59.0322 0.967742 58.8387 0.580645 58.4516C0.193548 58.0645 0 57.5806 0 57.0968V55.1613C0 54.6774 0.193548 54.1935 0.580645 53.8064C0.967742 53.4193 1.45161 53.2258 1.93548 53.2258H3.87097V52.2581H7.74194V51.2903C7.74194 50.5161 8.12903 49.8387 8.6129 49.2581C9.09677 48.6774 9.87097 48.3871 10.6452 48.3871H29.0323V50.3226H10.6452C10.3548 50.3226 10.1613 50.4193 9.96774 50.6129C9.77419 50.8064 9.67742 51 9.67742 51.2903V52.2581H51.4839ZM1.93548 57.0968H3.87097V55.1613H1.93548V57.0968ZM7.74194 58.0645H5.80645V54.1935H7.74194V58.0645ZM9.67742 58.0645H42.5806V54.1935H9.67742V58.0645ZM46.4516 58.0645H44.5161V54.1935H46.4516V58.0645ZM51.0968 58.0645L55.1613 56.4193V55.8387L51.0968 54.1935H48.3871V58.0645H51.0968Z" fill="#FB7710"/>
<rect x="30.9678" y="38.7097" width="1.93548" height="1.93548" fill="#FB7710"/>
<rect x="27.0967" y="38.7097" width="1.93548" height="1.93548" fill="#FB7710"/>
<rect x="23.2256" y="38.7097" width="1.93548" height="1.93548" fill="#FB7710"/>
<path d="M3.87097 42.5806V45.4839C3.87097 45.871 4.06452 46.2581 4.45161 46.3548C4.54839 46.4516 4.74194 46.4516 4.83871 46.4516C5.12903 46.4516 5.32258 46.3548 5.51613 46.1613L11.0323 40.6452H21.2903V38.7097H10.6452C10.3548 38.7097 10.1613 38.8064 9.96774 39L5.80645 43.1613V42.5806V38.7097H1.93548V1.93548H54.1936V23.2258H56.129V0H0V40.6452H3.87097V42.5806Z" fill="#FB7710"/>
</svg>
