<svg width="23" height="10" viewBox="0 0 23 10" fill="none" xmlns="http://www.w3.org/2000/svg">
<path d="M19.4832 4.09227H12.4514V0H10.5475V4.09227H3.51736C2.57737 4.09227 1.69347 4.44134 1.03129 5.07365C0.366002 5.70648 0 6.54823 0 7.44444V9.99867H1.90392V7.44444C1.90392 7.03324 2.07172 6.64752 2.37745 6.35609C2.68136 6.06629 3.08647 5.9064 3.51736 5.9064H10.5475V10H12.4514V5.9064H19.4832C19.9141 5.9064 20.3186 6.0665 20.6242 6.35844C20.9286 6.64773 21.0961 7.03273 21.0961 7.44465V9.99887H23V7.44465C23 6.5468 22.6331 5.70515 21.9706 5.0757C21.3071 4.44154 20.4237 4.09227 19.4832 4.09227Z" fill="#FB7710"/>
</svg>
