<svg width="54" height="55" viewBox="0 0 54 55" fill="none" xmlns="http://www.w3.org/2000/svg">
<path fill-rule="evenodd" clip-rule="evenodd" d="M53.9169 13.6014C53.9698 13.7211 54 13.8534 54 13.9932H53.9998V49.3658V49.3659V51.9307C53.9998 52.7508 53.6878 53.5215 53.1209 54.1013C52.5566 54.68 51.8028 55 50.9999 55C50.1975 55 49.4443 54.6799 48.8776 54.1004C48.3117 53.5208 48 52.7501 48 51.9306V49.3657V48.413V13.9933C48 13.8535 48.0303 13.7211 48.0832 13.6014L48.0829 13.6012L51 7L53.9176 13.6011L53.9169 13.6014ZM50.3739 13.0409H51.6265L51.0001 11.6237L50.3739 13.0409ZM49.8621 14.9459H52.138V48.4129H49.8621V14.9459ZM51.8034 52.7539C52.0196 52.5331 52.1377 52.2415 52.1377 51.9305V50.3182H49.8621V51.9305C49.8621 52.2415 49.9804 52.5332 50.195 52.753C50.6251 53.1938 51.3763 53.1931 51.8034 52.7539Z" fill="#FB7710"/>
<path d="M32 3.91553H43.1238V47.9426C43.1238 50.778 40.8666 53.0844 38.0912 53.0844V55C41.9005 55 45 51.8339 45 47.9426V2H32V3.91553Z" fill="#FB7710"/>
<path fill-rule="evenodd" clip-rule="evenodd" d="M32.9196 46.9842V47.9419C32.9196 50.7769 35.199 53.0844 38 53.0844V55H6.97356C3.12889 55 0.000854537 51.8348 0 47.9435V46.9858L6.02524 46.9855V2H19.1471V3.91553H7.91836V46.9855L32.9196 46.9842ZM1.98178 48.9014C2.42667 51.2803 4.49615 53.0844 6.97335 53.0844H33.2283C32.0908 52.0027 31.3113 50.5403 31.0904 48.8997L1.98178 48.9014Z" fill="#FB7710"/>
<path fill-rule="evenodd" clip-rule="evenodd" d="M29 3.49937C29.0003 5.42964 27.4298 7 25.4996 7C23.57 7 22 5.42964 22 3.49937C22 1.57002 23.5703 0 25.4996 0C27.4298 0 29 1.57002 29 3.49937ZM26.9678 3.49937C26.968 2.69023 26.3095 2.03209 25.4996 2.03209C24.6908 2.03209 24.0321 2.69011 24.0321 3.49937C24.0321 4.30897 24.6906 4.96791 25.4996 4.96791C26.3095 4.96791 26.9678 4.30886 26.9678 3.49937Z" fill="#FB7710"/>
<path d="M33.4832 26.0923H26.4514V22H24.5475V26.0923H17.5174C16.5774 26.0923 15.6935 26.4413 15.0313 27.0737C14.366 27.7065 14 28.5482 14 29.4444V31.9987H15.9039V29.4444C15.9039 29.0332 16.0717 28.6475 16.3775 28.3561C16.6814 28.0663 17.0865 27.9064 17.5174 27.9064H24.5475V32H26.4514V27.9064H33.4832C33.9141 27.9064 34.3186 28.0665 34.6242 28.3584C34.9286 28.6477 35.0961 29.0327 35.0961 29.4446V31.9989H37V29.4446C37 28.5468 36.6331 27.7051 35.9706 27.0757C35.3071 26.4415 34.4237 26.0923 33.4832 26.0923Z" fill="#FB7710"/>
<path fill-rule="evenodd" clip-rule="evenodd" d="M30 43H21V34H30V43ZM28.0402 35.9594H22.9595V41.0405H28.0402V35.9594Z" fill="#FB7710"/>
<path fill-rule="evenodd" clip-rule="evenodd" d="M34 21H18V12H34V21ZM32.0458 13.9595H19.9548V19.0406H32.0458V13.9595Z" fill="#FB7710"/>
<path fill-rule="evenodd" clip-rule="evenodd" d="M41 43H32V34H41V43ZM39.0403 35.9594H33.9597V41.0405H39.0403V35.9594Z" fill="#FB7710"/>
<path fill-rule="evenodd" clip-rule="evenodd" d="M20 43H11V34H20V43ZM18.0408 35.9594H12.9598V41.0405H18.0408V35.9594Z" fill="#FB7710"/>
</svg>
