<svg width="65" height="65" viewBox="0 0 65 65" fill="none" xmlns="http://www.w3.org/2000/svg">
<path fill-rule="evenodd" clip-rule="evenodd" d="M65 18.7L63.5902 17.3L60.7705 20H58.555L59.8642 18.7L58.4543 17.3L55.7354 20H44.0539C43.5504 14.4 38.8173 10 33.0773 10C26.9344 10 22 14.9 22 21C22 27.1 26.9344 32 33.0773 32C38.8173 32 43.5504 27.6 44.0539 22H55.7354L58.4543 24.7L59.8642 23.3L58.6557 22H60.8712L63.5902 24.7L65 23.3L62.6838 21L65 18.7ZM36.904 22C36.5012 23.7 34.8899 25 32.9766 25C30.7611 25 28.9485 23.2 28.9485 21C28.9485 18.8 30.7611 17 32.9766 17C34.8899 17 36.4005 18.3 36.904 20H32.9766V22H36.904ZM26.9344 21C26.9344 17.7 29.6534 15 32.9766 15C35.9977 15 38.4145 17.2 38.918 20H41.9391C41.4356 15.5 37.6089 12 32.9766 12C27.9415 12 23.9133 16 23.9133 21C23.9133 26 27.9415 30 32.9766 30C37.7096 30 41.5363 26.5 41.9391 22H38.918C38.4145 24.8 35.9977 27 32.9766 27C29.6534 27 26.9344 24.3 26.9344 21Z" fill="#FB7710"/>
<path d="M30 6.98473L29.7023 5C23.2519 6.0916 18.0916 11.3511 17 17.7023L18.9847 18C19.8779 12.542 24.542 7.87786 30 6.98473Z" fill="#FB7710"/>
<path d="M29.7045 37L30 35.0303C24.4848 34.1439 19.8561 29.5152 18.9697 24L17 24.2955C18.0833 30.697 23.303 35.9167 29.7045 37Z" fill="#FB7710"/>
<path d="M49 24.2977L47.0153 24C46.1221 29.458 41.458 34.1221 36 35.0153L36.2977 37C42.7481 35.9084 48.0076 30.6489 49 24.2977Z" fill="#FB7710"/>
<path d="M36.2955 5L36 6.9697C41.5152 7.85606 46.1439 12.4848 47.0303 18L49 17.7045C47.9167 11.303 42.697 6.08333 36.2955 5Z" fill="#FB7710"/>
<rect x="32" y="5" width="2" height="2" fill="#FB7710"/>
<rect x="16" y="20" width="2" height="2" fill="#FB7710"/>
<rect x="32" y="36" width="2" height="2" fill="#FB7710"/>
<path fill-rule="evenodd" clip-rule="evenodd" d="M39.8772 47.0604C40.1823 42.9771 42.2169 38.6896 45.2687 36.0354C48.0154 33.5854 49.9482 30.625 51.0672 27.3583L53 27.9708C51.7793 31.6458 49.5413 34.9125 46.5912 37.5667C43.9463 39.8125 42.2169 43.4875 41.9117 46.9583H43.8445V49H21.4645V46.9583H23.3973C23.0921 43.3854 21.3628 39.8125 18.7178 37.4646C14.2418 33.5854 11.5969 28.175 11.2917 22.4583H8.23992V24.5C8.23992 24.8062 8.1382 25.2146 7.73129 25.4188C7.68915 25.4188 7.62956 25.4363 7.55974 25.4568C7.46101 25.4858 7.34183 25.5208 7.22265 25.5208C7.12092 25.5208 6.91747 25.5208 6.71401 25.4188L0.610365 22.3563C0.203455 22.1521 0 21.8458 0 21.4375C0 21.0292 0.305182 20.7229 0.610365 20.5187L6.71401 17.4562C7.01919 17.2521 7.4261 17.2521 7.73129 17.4562C8.03647 17.6604 8.23992 18.0688 8.23992 18.375V20.4167H11.3935C11.9021 9.08542 21.261 0 32.6545 0C42.0134 0 50.2534 6.02292 52.7965 15.1083L50.8637 15.7208C48.4223 7.55417 40.9962 2.14375 32.5528 2.14375C21.8714 2.14375 13.2246 10.8208 13.2246 21.5396C13.2246 27.0521 15.666 32.2583 20.0403 36.0354C23.0921 38.7917 25.1267 42.9771 25.4319 47.0604H28.5854V42.9771H30.62V47.0604H34.6891V42.9771H36.7236V47.0604H39.8772ZM6.20537 22.8667H6.3071V20.0083L3.45873 21.4375L6.20537 22.8667Z" fill="#FB7710"/>
<rect x="22" y="51" width="22" height="2" fill="#FB7710"/>
<path fill-rule="evenodd" clip-rule="evenodd" d="M22 57H24V61H29V62C29 62.8 29.3 63.6 29.9 64.1C30.5 64.6 31.2 65 32 65H34C34.8 65 35.6 64.7 36.1 64.1C36.6 63.5 37 62.8 37 62V61H42V57H44V55H22V57ZM35 62C35 62.3 34.9 62.5 34.7 62.7C34.5 62.9 34.3 63 34 63H32C31.7 63 31.5 62.9 31.3 62.7C31.1 62.5 31 62.3 31 62V61H35V62ZM40 57H26V59H40V57Z" fill="#FB7710"/>
</svg>
