<svg width="60" height="49" viewBox="0 0 60 49" fill="none" xmlns="http://www.w3.org/2000/svg">
<rect x="12.333" y="22.7534" width="1.93509" height="1.93509" fill="#FB7710"/>
<rect x="16.2041" y="22.7534" width="1.93509" height="1.93509" fill="#FB7710"/>
<rect x="20.0728" y="22.7534" width="1.93509" height="1.93509" fill="#FB7710"/>
<path fill-rule="evenodd" clip-rule="evenodd" d="M52.1956 15.6291C54.2833 16.0749 55.8532 17.9311 55.8532 20.1478C55.8532 22.3661 54.283 24.2239 52.1956 24.6701V40.2649H52.1952H45.8405V36.9995L29.9206 30.4353V32.9014H21.1462V33.9766H24.3739V40.2118H21.1462V48.8547H13.1902V32.9013H4.41965V27.0091H0V13.2917H4.41965V7.39861H29.9206V9.86761L45.8405 3.3006V0.0352173H52.1956V15.6291ZM22.4385 35.9117H21.3636V38.2767H22.4385V35.9117ZM1.93509 25.0744V15.2269H4.41965V25.0744H1.93509ZM15.1255 46.9198H19.2108V32.9014H15.1255V46.9198ZM27.9857 30.966H6.35509V9.33393H27.9857V10.6659L27.9854 10.666V29.6376L27.9857 29.6377V30.966ZM52.1956 22.6574C53.2023 22.2681 53.9178 21.29 53.9178 20.1478C53.9178 19.0075 53.2027 18.0309 52.1956 17.6419V22.6574ZM29.9208 28.3426V11.9613L45.8405 5.39393V34.9067L29.9208 28.3426ZM47.7756 38.3298H50.2601V1.97042H47.7756V2.50247V37.7974V38.3298Z" fill="#FB7710"/>
<rect x="57.3081" y="19.1813" width="2.57614" height="1.93509" fill="#FB7710"/>
<path d="M58.2388 25.3138L56.0073 24.0254L56.9749 22.3496L59.2063 23.638L58.2388 25.3138Z" fill="#FB7710"/>
<path d="M54.7202 28.1313L53.4294 25.8987L55.1043 24.9303L56.3951 27.163L54.7202 28.1313Z" fill="#FB7710"/>
<path d="M59.2119 16.6644L56.9799 17.9534L56.0122 16.2778L58.2443 14.9888L59.2119 16.6644Z" fill="#FB7710"/>
<path d="M54.7178 12.1714L56.3925 13.1401L55.1016 15.3718L53.4268 14.4031L54.7178 12.1714Z" fill="#FB7710"/>
<path fill-rule="evenodd" clip-rule="evenodd" d="M25.664 21.4626H8.67725V12.2166H25.664V21.4626ZM23.7286 14.1517H10.6125V19.5274H23.7286V14.1517Z" fill="#FB7710"/>
</svg>
