<svg width="60" height="61" viewBox="0 0 60 61" fill="none" xmlns="http://www.w3.org/2000/svg">
<path fill-rule="evenodd" clip-rule="evenodd" d="M30.5336 44.3673C38.0707 44.3673 44.4305 38.7294 45.3257 31.2536L45.4265 30.4154H56.8463L56.7701 31.4369C55.757 45.0879 44.233 55.7817 30.5336 55.7817C24.2419 55.7817 18.149 53.5194 13.3774 49.4115L12.6011 48.7428L20.6771 40.6671L21.3403 41.1879C23.9884 43.2678 27.1676 44.3673 30.5336 44.3673ZM30.5337 53.879C42.8991 53.879 53.3531 44.489 54.7754 32.3175V32.3174H47.0937C45.7248 40.3292 38.7498 46.2689 30.534 46.2689C27.021 46.2689 23.6883 45.2074 20.8437 43.1902L15.411 48.6227C19.7097 52.0194 25.0404 53.879 30.5337 53.879Z" fill="#FB7710"/>
<path fill-rule="evenodd" clip-rule="evenodd" d="M19.332 39.3207L11.2551 47.3976L10.5868 46.6206C6.4791 41.8481 4.2168 35.7548 4.2168 29.4638C4.2168 15.7644 14.9099 4.24017 28.5618 3.22708L29.5833 3.15173V14.571L28.7451 14.6717C21.2691 15.5673 15.6318 21.9267 15.6318 29.4638C15.6318 32.8302 16.731 36.0096 18.8109 38.6571L19.332 39.3207ZM27.6807 12.9044V5.22208C15.5093 6.64404 6.1191 17.099 6.1191 29.4637C6.1191 34.9574 7.97875 40.288 11.3751 44.587L16.8084 39.1537C14.7911 36.3101 13.7291 32.9774 13.7291 29.4641C13.7291 21.2481 19.6695 14.2736 27.6807 12.9044Z" fill="#FB7710"/>
<path d="M5.3249 42.9294L3.64795 43.8277C3.96061 44.4112 4.29682 44.9925 4.64756 45.5557L6.26217 44.5498C5.93299 44.0217 5.61764 43.4764 5.3249 42.9294Z" fill="#FB7710"/>
<path d="M3.77932 39.5217L1.99854 40.191C2.23256 40.8131 2.49025 41.4342 2.76354 42.0366L4.49604 41.2508C4.23975 40.6863 3.99893 40.1043 3.77932 39.5217Z" fill="#FB7710"/>
<path d="M2.09309 32.2509L0.199219 32.4342C0.263086 33.096 0.349805 33.7613 0.456328 34.4127L2.33402 34.1055C2.23406 33.495 2.15273 32.8707 2.09309 32.2509Z" fill="#FB7710"/>
<path d="M2.69523 35.9409L0.841797 36.3702C0.991211 37.0152 1.16465 37.6644 1.3566 38.2988L3.17758 37.7477C2.9977 37.1529 2.83563 36.5448 2.69523 35.9409Z" fill="#FB7710"/>
<path d="M7.30326 46.1049L5.75732 47.2139C6.14463 47.7533 6.55385 48.2855 6.97385 48.7968L8.4435 47.5887C8.04963 47.1102 7.66596 46.6104 7.30326 46.1049Z" fill="#FB7710"/>
<path d="M21.6841 58.6329C22.3225 58.8267 22.9716 58.9998 23.6133 59.148L24.042 57.2944C23.4411 57.1557 22.8339 56.9934 22.236 56.8123L21.6841 58.6329Z" fill="#FB7710"/>
<path d="M25.5703 59.5365C26.2219 59.643 26.8873 59.7297 27.5488 59.7938L27.7327 57.9008C27.1125 57.8402 26.4882 57.7589 25.8778 57.6587L25.5703 59.5365Z" fill="#FB7710"/>
<path d="M9.67838 48.9954L8.29053 50.2967C8.74205 50.7783 9.21666 51.2525 9.70111 51.7067L11.0022 50.3189C10.5476 49.8927 10.102 49.4478 9.67838 48.9954Z" fill="#FB7710"/>
<path d="M17.9541 57.2292C18.558 57.5029 19.1775 57.7602 19.7964 57.993L20.467 56.2132C19.8868 55.9945 19.306 55.7536 18.7408 55.4971L17.9541 57.2292Z" fill="#FB7710"/>
<path d="M11.2012 53.0229C11.7118 53.4429 12.2443 53.8521 12.7827 54.2385L13.8921 52.6925C13.3866 52.3301 12.8877 51.9467 12.4087 51.5531L11.2012 53.0229Z" fill="#FB7710"/>
<path d="M14.4404 55.3473C15.0045 55.6989 15.5856 56.0352 16.1675 56.3463L17.0645 54.6684C16.5197 54.3769 15.9749 54.0624 15.4466 53.733L14.4404 55.3473Z" fill="#FB7710"/>
<rect x="29.6284" y="58.0983" width="1.90195" height="1.90266" fill="#FB7710"/>
<rect x="0.00683594" y="28.4763" width="1.90266" height="1.9023" fill="#FB7710"/>
<path d="M35.1388 14.2866L45.4441 3.98157C44.8745 3.64771 44.2922 3.33294 43.6987 3.03693L32.9443 13.7913C33.6948 13.9056 34.4271 14.0712 35.1388 14.2866Z" fill="#FB7710"/>
<path d="M38.4606 15.7308L48.3027 5.88843C47.7897 5.50089 47.2614 5.13245 46.7229 4.77808L36.6631 14.8383C37.2831 15.0987 37.8835 15.3969 38.4606 15.7308Z" fill="#FB7710"/>
<path d="M32.4365 12.2229L42.2817 2.37748C41.6502 2.10326 41.0094 1.84439 40.3554 1.61365L32.4365 9.53271V12.2229Z" fill="#FB7710"/>
<path d="M32.436 0V0.000585938V2.69074L34.8654 0.261094C34.0654 0.143437 33.2563 0.0525 32.436 0Z" fill="#FB7710"/>
<path d="M41.214 17.745L50.8792 8.07927C50.4196 7.64123 49.9495 7.21349 49.4622 6.80603L39.7261 16.5422C40.2463 16.9135 40.7434 17.3151 41.214 17.745Z" fill="#FB7710"/>
<path d="M32.4366 7.45676L38.7807 1.11328C38.0739 0.908083 37.358 0.725623 36.6305 0.572693L32.4365 4.76672V7.45676H32.4366Z" fill="#FB7710"/>
<path d="M46.2024 27.0531L56.9578 16.2981C56.6622 15.7044 56.3476 15.1224 56.0134 14.5524L45.708 24.858C45.9237 25.5699 46.0886 26.3029 46.2024 27.0531Z" fill="#FB7710"/>
<path d="M43.4543 20.271L53.1902 10.5344C52.7825 10.0469 52.3547 9.57714 51.917 9.11694L42.252 18.7827C42.6811 19.2537 43.0832 19.7505 43.4543 20.271Z" fill="#FB7710"/>
<path d="M50.4624 27.5616L58.3818 19.6419C58.1504 18.9879 57.8922 18.3477 57.6179 17.7156L47.772 27.5616H50.4624Z" fill="#FB7710"/>
<path d="M55.2282 27.5616L59.4223 23.3673C59.2692 22.6398 59.0869 21.9241 58.8819 21.2175L52.5381 27.5616H55.2282Z" fill="#FB7710"/>
<path d="M59.9941 27.561C59.942 26.7412 59.8504 25.9323 59.7331 25.1316L57.3037 27.5612H59.9941V27.561Z" fill="#FB7710"/>
<path d="M45.1566 23.334L55.2173 13.2735C54.8631 12.7347 54.495 12.2067 54.1068 11.6927L44.2646 21.5354C44.5982 22.1127 44.8962 22.7131 45.1566 23.334Z" fill="#FB7710"/>
<path d="M29.5835 19.9504V21.7149H29.3999C28.2506 21.7149 27.1601 22.1645 26.3207 22.9899C25.5026 23.8155 25.0522 24.9078 25.0522 26.0649C25.0522 27.2304 25.5038 28.322 26.3246 29.1402C27.1478 29.9622 28.2403 30.4146 29.3996 30.4146H31.6657C32.3171 30.4146 32.9315 30.6702 33.3979 31.1343C33.8596 31.5933 34.1131 32.2068 34.1131 32.862C34.1131 33.5118 33.8569 34.128 33.4002 34.59C32.934 35.0502 32.3178 35.3041 31.6656 35.3041H29.3994C28.7463 35.3041 28.1302 35.0506 27.6721 34.5973C27.2092 34.1305 26.9546 33.5146 26.9546 32.8624H25.0522C25.0522 34.0196 25.5028 35.1113 26.3272 35.9434C27.1511 36.7582 28.2421 37.2067 29.3998 37.2067H29.5834V38.9764H31.4857V37.2067H31.6661C32.822 37.2067 33.9128 36.7585 34.7449 35.9359C35.5649 35.1082 36.0157 34.0169 36.0157 32.8621C36.0157 31.6973 35.5621 30.6049 34.7398 29.7865C33.9157 28.9648 32.8231 28.5124 31.6657 28.5124H29.3996C28.7474 28.5124 28.1326 28.2574 27.6682 27.7934C27.2084 27.3349 26.9548 26.7212 26.9548 26.0651C26.9548 25.413 27.2094 24.7964 27.6634 24.338C28.1356 23.8736 28.7524 23.6176 29.3998 23.6176H31.666C32.3125 23.6176 32.9292 23.8736 33.3933 24.329C33.8571 24.7984 34.1133 25.4149 34.1133 26.0651H36.0158C36.0158 24.9105 35.5649 23.8184 34.7349 22.9811C33.9035 22.1648 32.8133 21.7151 31.6658 21.7151H31.4855V19.9505H29.5835V19.9504Z" fill="#FB7710"/>
</svg>
