<svg width="60" height="60" viewBox="0 0 60 60" fill="none" xmlns="http://www.w3.org/2000/svg">
<path fill-rule="evenodd" clip-rule="evenodd" d="M0 30C0.000351563 13.4577 13.458 0 30 0C46.5421 0 59.9996 13.4577 59.9996 30C59.9996 46.5423 46.5423 60 30 60C13.4577 60 0 46.5423 0 30ZM2.11805 30C2.11805 45.3744 14.6259 57.8827 30.0004 57.8827C45.3744 57.8827 57.8823 45.3744 57.8823 30C57.882 14.6256 45.3741 2.1177 30 2.1177C14.6256 2.1177 2.11805 14.6256 2.11805 30Z" fill="#FB7710"/>
<path fill-rule="evenodd" clip-rule="evenodd" d="M3.83984 29.9996C3.83984 15.575 15.575 3.8396 30.0002 3.8396C44.4248 3.8396 56.16 15.5751 56.1598 29.9996C56.1598 44.4244 44.4248 56.1596 30.0002 56.1596C15.5752 56.1596 3.83984 44.4244 3.83984 29.9996ZM5.95754 30C5.95754 43.2576 16.7429 54.0423 30.0002 54.0423C43.2573 54.0423 54.0423 43.2575 54.0423 30C54.0425 16.743 43.2573 5.95765 30.0002 5.95765C16.7431 5.95765 5.95754 16.743 5.95754 30Z" fill="#FB7710"/>
<path fill-rule="evenodd" clip-rule="evenodd" d="M25.5288 29.9997C25.5288 27.5339 27.5343 25.5281 30.0001 25.5281C32.466 25.5281 34.4714 27.5338 34.4713 29.9997C34.4713 32.4649 32.4659 34.4713 30.0001 34.4713C27.5343 34.4713 25.5288 32.4649 25.5288 29.9997ZM27.6414 29.9999C27.6414 31.3005 28.6998 32.3586 30.0001 32.3586C31.3 32.3586 32.3585 31.3005 32.3584 29.9999C32.3588 28.6994 31.3004 27.6412 30.0001 27.6412C28.6998 27.6412 27.6414 28.6996 27.6414 29.9999Z" fill="#FB7710"/>
<path fill-rule="evenodd" clip-rule="evenodd" d="M33.4864 30.9661V28.8476H48.9602V29.9071C48.9602 39.9932 41.054 48.2621 31.1284 48.8134V59.04H29.0154V48.8134C19.4397 48.2814 11.7439 40.5661 11.2132 30.9663H1.2002V28.8478H11.213C11.7436 19.2469 19.4394 11.5312 29.0154 10.9992V0.959961H31.1284V26.4831H29.0154V20.3745C24.5829 20.8652 21.0536 24.4035 20.5643 28.8478H26.657V30.9663H20.5644C21.0539 35.4102 24.5829 38.9484 29.0154 39.439V32.7937H31.1284V39.439C35.5607 38.9484 39.0897 35.4101 39.5791 30.9661H33.4864ZM29.0154 18.2451V13.1215C20.6045 13.6482 13.855 20.4156 13.3299 28.8478H18.4407C18.9449 23.234 23.4165 18.7508 29.0154 18.2451ZM13.33 30.9663H18.4408C18.9453 36.5799 23.4165 41.0629 29.0155 41.5685V46.6911C20.605 46.1645 13.8554 39.3982 13.33 30.9663ZM31.1284 41.5685V46.6912C39.539 46.1646 46.2899 39.3983 46.8146 30.966H41.7031C41.1987 36.5799 36.7275 41.0629 31.1284 41.5685Z" fill="#FB7710"/>
<path fill-rule="evenodd" clip-rule="evenodd" d="M25.6802 29.8799C25.6802 27.4316 27.6716 25.4399 30.1202 25.4399C32.5688 25.4399 34.5603 27.4315 34.5602 29.8799C34.5602 32.3277 32.5687 34.3199 30.1202 34.3199C27.6716 34.3199 25.6802 32.3277 25.6802 29.8799ZM27.778 29.8802C27.778 31.1715 28.829 32.2222 30.1202 32.2222C31.411 32.2222 32.4621 31.1715 32.462 29.8802C32.4624 28.5888 31.4114 27.5382 30.1202 27.5382C28.829 27.5382 27.778 28.5891 27.778 29.8802Z" fill="#FB7710"/>
<path d="M45.0388 20.8019C46.1327 20.8019 47.0195 19.9194 47.0195 18.8307C47.0195 17.7421 46.1327 16.8596 45.0388 16.8596C43.9449 16.8596 43.0581 17.7421 43.0581 18.8307C43.0581 19.9194 43.9449 20.8019 45.0388 20.8019Z" fill="#FB7710"/>
<path d="M10.6082 37.278C10.061 37.278 9.61816 37.7186 9.61816 38.2629C9.61816 38.809 10.061 39.2485 10.6082 39.2485C11.155 39.2485 11.5981 38.809 11.5981 38.2629C11.5981 37.7186 11.155 37.278 10.6082 37.278Z" fill="#FB7710"/>
<path d="M20.6647 21.0237C21.4851 21.0237 22.1502 20.3618 22.1502 19.5454C22.1502 18.7289 21.4851 18.067 20.6647 18.067C19.8443 18.067 19.1792 18.7289 19.1792 19.5454C19.1792 20.3618 19.8443 21.0237 20.6647 21.0237Z" fill="#FB7710"/>
<path d="M35.6829 23.2922C36.0929 23.2922 36.4254 22.9614 36.4254 22.5533C36.4254 22.1453 36.0929 21.8145 35.6829 21.8145C35.2728 21.8145 34.9404 22.1453 34.9404 22.5533C34.9404 22.9614 35.2728 23.2922 35.6829 23.2922Z" fill="#FB7710"/>
<path d="M36.1703 48.8116C35.3492 48.8116 34.6846 49.4752 34.6846 50.2912C34.6846 51.1071 35.3492 51.7676 36.1703 51.7676C36.9902 51.7676 37.6549 51.1071 37.6549 50.2912C37.6549 49.4748 36.9902 48.8113 36.1703 48.8116Z" fill="#FB7710"/>
</svg>
